<?xml version="1.0" encoding="UTF-8"?>
<svg width="32px" height="32px" viewBox="0 0 32 32" version="1.1" xmlns="http://www.w3.org/2000/svg" xmlns:xlink="http://www.w3.org/1999/xlink">
    <title>Allotrope Logo</title>
    <g id="Page-1" stroke="none" stroke-width="1" fill="none" fill-rule="evenodd">
        <g id="Desktop-Copy" transform="translate(-32.000000, -32.000000)" fill="#FFFFFF">
            <g id="Allotrope-Logo" transform="translate(32.000000, 32.000000)">
                <path d="M14.133411,28.0009092 C15.0713278,29.8350303 16.7588966,31.2221703 18.7919841,31.7581959 C17.8860208,31.9167278 16.952735,32 16,32 C12.0878946,32 8.50371831,30.5959683 5.72388153,28.2643153 L5.74103789,28.2357763 L5.74103789,28.2357763 L5.86658902,28.0009092 Z M16,0 C24.836556,0 32,7.163444 32,16 C32,20.2582599 30.3365103,24.1279909 27.6239234,26.9948005 C27.867457,26.2632105 28,25.4804171 28,24.6666667 C28,20.6165785 24.7167548,17.3333333 20.6666667,17.3333333 C20.2325533,17.3333333 19.8072501,17.3710541 19.3938559,17.4433968 L19.3938559,17.4433968 L15.8449691,11.762781 C16.7790241,10.5321399 17.3333333,8.99746956 17.3333333,7.33333333 C17.3333333,4.12723128 15.2758845,1.40167215 12.4092859,0.404955012 C13.5628621,0.139902105 14.7650931,0 16,0 Z M11.0404621,14.5934223 L14.7301616,20.3604681 C14.2301856,21.0485424 13.846917,21.8269032 13.6094307,22.6664754 L13.6094307,22.6664754 L6.39056926,22.6664754 C6.1537681,21.8293252 5.7720245,21.0530337 5.27416253,20.3664252 L5.27416253,20.3664252 L8.96656393,14.5944167 C9.30420049,14.6420384 9.64922412,14.6666667 10,14.6666667 C10.3532094,14.6666667 10.7005865,14.6416955 11.0404621,14.5934223 L11.0404621,14.5934223 Z M2.6696508,7.1480598 L2.66666667,7.33333333 C2.66666667,9.00016962 3.22277609,10.5371196 4.15958044,11.7687688 L4.15958044,11.7687688 L0.613155274,17.4446273 C0.43026676,17.4124387 0.245042421,17.3870274 0.0577508449,17.3686621 C0.0195220279,16.9180427 0,16.4613012 0,16 C0,12.7267686 0.982899756,9.68310568 2.6696508,7.1480598 Z" id="MASTER-ALLOTROPE-LOGO"></path>
            </g>
        </g>
    </g>
</svg>