<?xml version="1.0" encoding="UTF-8"?>
<svg width="150px" height="25px" viewBox="0 0 150 25" version="1.1" xmlns="http://www.w3.org/2000/svg" xmlns:xlink="http://www.w3.org/1999/xlink">
    <title>Portland</title>
    <g id="Page-1" stroke="none" stroke-width="1" fill="none" fill-rule="evenodd">
        <g id="Desktop-HD" transform="translate(-393.000000, -377.000000)" fill="#000000" fill-rule="nonzero">
            <g id="Group" transform="translate(360.000000, 345.000000)">
                <path d="M53.344,52.832 C55.328,50.72 56.576,47.904 56.576,44.768 C56.576,38.336 51.328,33.088 44.864,33.088 C43.968,33.088 43.072,33.152 42.24,33.376 C44.32,34.112 45.856,36.064 45.856,38.464 C45.856,39.648 45.44,40.8 44.736,41.696 L44.736,41.696 L47.328,45.824 C47.648,45.792 47.968,45.76 48.288,45.76 C51.232,45.76 53.664,48.128 53.664,51.104 C53.664,51.712 53.536,52.288 53.344,52.832 Z M33.6,45.824 L36.192,41.696 C35.488,40.8 35.136,39.648 35.136,38.464 L35.136,38.464 L35.136,38.336 L35.104,38.336 C33.888,40.16 33.152,42.4 33.152,44.768 C33.152,45.12 33.152,45.472 33.184,45.792 C33.344,45.792 33.504,45.824 33.6,45.824 L33.6,45.824 Z M43.104,49.664 C43.264,49.024 43.584,48.48 43.936,47.968 L43.936,47.968 L41.248,43.744 C40.992,43.776 40.736,43.776 40.48,43.776 C40.224,43.776 39.968,43.776 39.712,43.744 L39.712,43.744 L37.024,47.968 C37.408,48.48 37.664,49.024 37.856,49.664 L37.856,49.664 L43.104,49.664 Z M44.864,56.48 C45.568,56.48 46.24,56.416 46.912,56.288 C45.44,55.904 44.16,54.88 43.488,53.568 L43.488,53.568 L37.44,53.568 L37.44,53.568 L37.376,53.76 C39.36,55.456 42.016,56.48 44.864,56.48 Z M64.224,56.032 L64.224,48.384 L68.832,48.384 C74.176,48.384 76.992,45.792 76.992,40.928 C76.992,36.16 74.176,33.632 68.832,33.632 L60.288,33.632 L60.288,56.032 L64.224,56.032 Z M67.68,45.248 L64.224,45.248 L64.224,36.768 L67.68,36.768 C71.072,36.768 72.864,38.208 72.864,40.96 C72.864,43.776 71.072,45.248 67.68,45.248 Z M85.888,56.48 C91.072,56.48 94.272,53.088 94.272,47.648 C94.272,42.176 91.072,38.752 85.888,38.752 C80.736,38.752 77.536,42.176 77.536,47.648 C77.536,53.088 80.736,56.48 85.888,56.48 Z M85.888,53.408 C83.232,53.408 81.6,51.2 81.6,47.648 C81.6,44.064 83.232,41.824 85.888,41.824 C88.576,41.824 90.208,44.064 90.208,47.648 C90.208,51.2 88.576,53.408 85.888,53.408 Z M100.512,56 L100.512,46.08 C100.544,43.52 102.592,41.92 105.76,41.92 C106.592,41.92 107.648,42.144 108.512,42.496 L108.128,39.136 C107.744,38.88 106.976,38.752 106.144,38.752 C103.68,38.752 101.728,39.84 100.512,41.76 L100,39.2 L96.576,39.2 L96.576,56 L100.512,56 Z M123.584,42.176 L123.2,39.2 L117.28,39.2 L117.28,33.6 L113.376,33.6 L113.376,39.2 L110.048,39.2 L110.432,42.176 L113.376,42.177 L113.376,50.432 C113.376,54.2179556 115.578738,56.3824514 119.565421,56.4767816 L119.84,56.48 C121.344,56.48 122.656,56.288 123.552,55.936 L123.552,55.936 L123.232,52.864 C122.528,53.152 121.6,53.312 120.544,53.312 C118.432,53.312 117.28,52 117.28,49.664 L117.28,49.664 L117.28,42.177 L123.584,42.176 Z M129.824,56 L129.824,32 L125.888,32 L125.888,56 L129.824,56 Z M137.632,56.48 C140.096,56.48 142.112,55.36 143.328,53.472 L143.328,53.632 L143.712,56 L147.264,56 L147.264,45.6 C147.264,41.408 144.544,38.752 140.128,38.752 C136.224,38.752 133.568,40.64 133.056,43.68 L136.96,43.68 C137.28,42.496 138.464,41.792 140.128,41.824 C142.112,41.824 143.296,42.944 143.328,44.768 L143.328,45.568 L137.408,45.728 C134.112,45.824 132.032,47.904 132.032,51.136 C132.032,54.432 134.208,56.48 137.632,56.48 Z M135.648,51.072 C135.648,49.536 136.608,48.512 138.144,48.416 L143.328,48.096 L143.328,50.816 C142.784,52.448 141.088,53.472 138.816,53.504 C136.864,53.568 135.648,52.608 135.648,51.072 Z M153.12,56 L153.12,45.824 C153.12,43.232 154.688,41.824 157.152,41.824 C159.328,41.824 160.704,43.328 160.704,45.696 L160.704,56 L164.608,56 L164.608,44.896 C164.64,41.12 162.304,38.752 158.56,38.752 C156.16,38.752 154.272,39.776 153.088,41.6 L152.608,39.2 L149.184,39.2 L149.184,56 L153.12,56 Z M173.344,56.48 C175.872,56.48 177.824,55.264 178.976,53.12 L178.976,53.728 L179.392,56 L182.88,56 L182.88,32 L178.976,32 L178.976,42.112 C177.824,39.968 175.872,38.752 173.344,38.752 C169.152,38.752 166.528,42.176 166.528,47.616 C166.528,53.056 169.152,56.48 173.344,56.48 Z M174.72,53.376 C172.16,53.376 170.56,51.136 170.56,47.584 C170.56,44.032 172.16,41.792 174.72,41.792 C177.312,41.792 178.944,44.032 178.944,47.584 C178.944,51.136 177.312,53.376 174.72,53.376 Z" id="Portland"></path>
            </g>
        </g>
    </g>
</svg>