<?xml version="1.0" standalone="no"?>
<!DOCTYPE svg PUBLIC "-//W3C//DTD SVG 20010904//EN"
 "http://www.w3.org/TR/2001/REC-SVG-20010904/DTD/svg10.dtd">
<svg version="1.0" xmlns="http://www.w3.org/2000/svg"
 width="700.000000pt" height="700.000000pt" viewBox="0 0 700.000000 700.000000"
 preserveAspectRatio="xMidYMid meet">
<metadata>
Created by potrace 1.14, written by Peter Selinger 2001-2017
</metadata>
<g transform="translate(0.000000,700.000000) scale(0.100000,-0.100000)"
fill="#000000" stroke="none">
<path d="M3278 6996 c-1 -2 -39 -6 -83 -10 -116 -9 -205 -22 -432 -63 -40 -7
-42 -19 -5 -28 47 -11 240 -112 325 -169 283 -190 497 -466 615 -793 27 -74
58 -189 68 -253 2 -14 8 -52 13 -85 16 -100 11 -340 -10 -461 -38 -227 -124
-443 -248 -628 -28 -41 -51 -77 -51 -80 0 -5 373 -606 425 -686 13 -19 91
-145 175 -280 160 -258 178 -283 191 -274 37 23 385 23 514 1 131 -23 138 -25
244 -58 167 -54 382 -171 516 -281 74 -61 210 -203 266 -278 49 -66 169 -261
169 -276 0 -3 11 -29 24 -57 123 -270 162 -637 101 -947 -8 -42 -37 -148 -46
-170 -7 -18 4 -11 38 26 157 166 321 389 451 616 47 80 182 351 182 364 0 3 8
24 19 47 20 45 76 203 110 307 46 147 108 439 127 605 4 33 9 76 11 95 8 69
10 517 2 595 -15 162 -21 220 -24 225 -2 3 -6 30 -10 60 -9 75 -69 337 -99
435 -135 446 -345 845 -627 1195 -426 528 -975 912 -1614 1128 -167 56 -419
119 -555 137 -19 3 -46 7 -60 10 -13 2 -52 7 -86 11 -33 3 -74 8 -90 10 -32 5
-540 14 -546 10z"/>
<path d="M495 5292 c-195 -332 -345 -705 -410 -1022 -67 -323 -80 -460 -80
-807 1 -139 3 -254 6 -257 3 -3 30 -8 60 -12 29 -3 56 -8 58 -10 2 -2 39 54
82 124 43 70 83 134 89 142 11 15 548 875 587 940 l21 35 -59 89 c-162 245
-254 532 -263 826 -1 44 -4 82 -7 84 -2 3 -40 -57 -84 -132z"/>
<path d="M1888 3694 c-40 -63 -90 -140 -110 -172 -21 -31 -47 -73 -58 -92 -11
-19 -47 -75 -79 -125 -33 -49 -94 -144 -136 -210 -42 -66 -103 -160 -136 -210
-32 -49 -62 -97 -65 -105 -4 -8 -20 -33 -35 -55 -14 -22 -47 -72 -71 -110
l-45 -71 44 -64 c55 -80 143 -262 174 -355 13 -38 27 -73 32 -76 5 -3 361 -6
791 -6 l783 0 17 54 c34 106 90 226 157 339 l69 114 -228 355 c-125 195 -264
412 -310 483 -45 70 -85 134 -90 142 -7 14 -25 43 -131 206 -40 62 -49 71 -71
66 -37 -7 -349 -7 -392 0 l-38 6 -72 -114z"/>
<path d="M1267 845 l-14 -30 86 -68 c88 -69 363 -257 377 -257 4 0 15 -6 23
-14 57 -49 444 -227 633 -290 92 -31 296 -88 361 -102 89 -19 213 -41 276 -50
25 -3 57 -8 71 -10 163 -25 682 -25 842 1 13 2 46 7 73 11 28 3 59 8 70 9 11
2 25 4 30 5 6 0 -33 16 -85 34 -311 108 -570 295 -770 555 -30 39 -137 207
-143 224 -3 9 -220 12 -910 12 l-906 0 -14 -30z"/>
</g>
</svg>
